#!OML:ASF F:\VICON\USERDATA\INSTALL\rory3\rory3.ASF
:FULLY-SPECIFIED
:DEGREES
64
root 0.7888025901973217 18.1935411835181 31.225326829483837 5.514314484014612 -0.6176542760892226 -1.358788569876295
lfemur 14.930146525147538 -8.079626100546248 -27.481182247272287
ltibia 8.095682853655973
lfoot -14.340003545442055 0.8936584238842897
ltoes -12.759572288806678
rfemur -46.58322289761561 -4.889573690751504 24.14911765346237
rtibia 128.2906682579096
rfoot 10.159217641066007 -0.9757380071271289
rtoes 14.794827068400346
lowerback nan -0.44117696249166516 -1.0547233169304095
upperback -0.36245251764736375 -0.1221004454512713 0.3650026382876652
thorax -8.855508497383395 -0.5048297864638137 2.2234692047577034
lowerneck -21.752902720467425 -3.12043435414523 -2.1830568713293284
upperneck 6.247932413738584 -5.2561431880548195 5.981764915466721
head 5.990295894421845 -1.3013401942135 1.5088635483952992
lclavicle 1.5096630043573578e-15 1.581624509855315e-14
lhumerus -41.914419291694344 -1.0181261377875694 81.53458226863094
lradius 127.37813803270235
lwrist 39.46623000566024
lhand -30.477673522370274 5.246631492102417
lfingers nan
lthumb -3.446498511520211 35.132575619315524
rclavicle 3.3904865080971494e-15 1.8580800971780605e-14
rhumerus -65.99775696053149 0.5443708313994691 -89.50316876911309
rradius 93.50871601409432
rwrist -24.085880241178163
rhand -19.299740074000923 nan
rfingers nan
rthumb 6.6620408054762805 9.300507465262452
65
root 0.8172169522683752 18.299859314281797 31.56741504964367 5.468958422054585 -1.9128482550342238 -1.485237857937128
lfemur 15.996603615736912 -7.364944899343721 -27.575341025238373
ltibia 6.415451041693437
lfoot -10.274576221625875 -0.4705047056026359
ltoes -15.042913646183782
rfemur -45.884352825318985 -3.6870169379459345 24.203611752127244
rtibia 123.72352247758008
rfoot 9.372397850680311 -0.7365943688781389
rtoes 13.82175403128357
lowerback nan -0.45258082110322573 -1.1951701577047253
upperback -0.6639375640132095 -0.050911512591550245 0.4130451625784509
thorax -9.132901695865728 -0.476344653863077 2.3436243824452134
lowerneck -20.432308348775724 -3.0645487094081405 -2.3198340608609964
upperneck 6.276925853293516 -5.190930412761273 6.185660294671912
head 5.775721339845682 -1.2674944021387056 1.587619978098369
lclavicle 1.0016529994049729e-14 1.0275790197406092e-14
lhumerus -42.69184258514178 -1.3628715267863738 81.37381662397786
lradius 128.28408737669872
lwrist 38.9913513394777
lhand -29.83832949375639 5.255322949370944
lfingers nan
lthumb -2.8585189797498796 35.12343032583256
rclavicle 1.1598326626004846e-14 1.308700475500784e-14
rhumerus -66.86078046544174 0.36477164756844793 -89.29338210167343
rradius 94.23419759345143
rwrist -24.103423802682972
rhand -19.539882134944225 nan
rfingers nan
rthumb 6.409821280354546 9.204729624813108
66
root 0.8387002316414112 18.383127354289353 32.42550598298806 5.277800461676162 -3.2899528951640176 -1.594712749776539
lfemur 16.98417555048631 -6.541182493126685 -27.66153210342611
ltibia 4.592758404301499
lfoot -5.775199639460652 -1.9731095598234898
ltoes -15.927083590133194
rfemur -45.13590178448115 -2.4625811759762866 24.213897647310507
rtibia 118.96244373573441
rfoot 8.512027027046578 -0.3104279209695191
rtoes 13.388159683873566
lowerback nan -0.39867906217666216 -1.4493110393952118
upperback -1.1835090900473175 0.06893060295467413 0.4528654826535864
thorax -10.045944103748521 -0.36726754518088167 2.437484150231848
lowerneck -17.34382776047198 -2.9160840823944056 -2.3355817447649785
upperneck 5.026805041934356 -5.030747436206322 6.238592001737038
head 4.852144018295922 -1.2278632735721433 1.611370028290986
lclavicle 6.52042807465082e-15 2.5181364687746646e-14
lhumerus -43.82941752234958 -1.6769003506380171 81.20392748075268
lradius 129.03266850874678
lwrist 38.40440279717721
lhand -29.60780901422787 4.521398973444061
lfingers nan
lthumb -2.6669059308463474 34.34493666478266
rclavicle 7.887257976768248e-15 2.773506068927581e-14
rhumerus -67.84150162878439 0.2398724945986892 -89.25735427548466
rradius 94.99055012376358
rwrist -24.331615711445462
rhand -19.86486586776903 nan
rfingers nan
rthumb 6.068382167093166 8.816078638301336
67
root 0.8682599735306697 18.447410964414054 32.97656217179748 5.163878699397294 -4.146290895451161 -1.7085477909758118
lfemur 17.729775981201424 -5.705300704885502 -27.532385427339747
ltibia 2.7616534164770385
lfoot -0.1538543115609352 -4.315827684346738
ltoes -16.92627159867985
rfemur -44.580001540258394 -1.6219237298931506 24.277856078914983
rtibia 114.0120502112101
rfoot 7.834204900871023 -0.1588953504067776
rtoes 12.656230437783831
lowerback nan -0.47040941092472177 -1.458383060622665
upperback -0.41275948232084386 0.08680365800751666 0.553000416122814
thorax -8.272457548825166 -0.3555792532968979 2.3841066653352914
lowerneck -20.803869045919676 -2.858538888362717 -2.3402505587084614
upperneck 6.293879537357036 -4.928880780591694 6.045719421138347
head 5.884231583487515 -1.1715786041734237 1.557841895872468
lclavicle -5.8279053830096445e-15 2.1336792720618524e-14
lhumerus -42.615527530268395 -1.6688428309853736 80.97796838994957
lradius 129.0064188287246
lwrist 37.749566438874126
lhand -29.703318806744527 3.292609019122681
lfingers nan
lthumb -2.7467344578787136 33.12488741960857
rclavicle -4.402412129125415e-15 2.3868854112578534e-14
rhumerus -66.20765199564174 0.49361349644702734 -88.85008727478599
rradius 95.19899980514282
rwrist -24.832580151919867
rhand -19.9971689847122 nan
rfingers nan
rthumb 5.916041551053355 8.767689758293816
